<?xml version="1.0" encoding="UTF-8"?>
<svg id="Camada_1" data-name="Camada 1" xmlns="http://www.w3.org/2000/svg" viewBox="0 0 260.63 134.61">
  <defs>
    <style>
      .cls-1 {
        fill: #1780ff;
        opacity: 0.03;
      }
    </style>
  </defs>
  <path class="cls-1" d="m125.7,65.64c9.11-4.52,17.82-5.36,26.5.52,5.47-4.9,12.28-4.9,19.1-4.21,5,.5,8.31,3.65,10.31,8.15,2.43,5.47,3,11.31,3.12,17.19.17,7.78.11,15.57.18,23.35,0,.88-.19,1.25-1.16,1.24-5.2-.04-10.41-.05-15.61,0-1.09.01-1.34-.39-1.34-1.39,0-7.74-.02-15.47-.11-23.21-.03-2.19-.18-4.4-.5-6.57-.32-2.16-1.65-3.33-3.58-3.6-2.3-.32-3.6.32-4.75,2.39-1.27,2.29-1.56,4.79-1.56,7.35,0,7.74-.03,15.47.02,23.21,0,1.18-.37,1.53-1.52,1.53-4.88.01-9.75.08-14.63.2-1.17.03-1.52-.34-1.53-1.51-.03-8.25-.08-16.51-.25-24.76-.04-1.74-.41-3.55-1-5.19-.78-2.16-2.49-3.31-4.89-3.31-2.42,0-4.18,1.19-4.87,3.34-.7,2.19-1.15,4.57-1.13,6.86.07,7.41.42,14.81.63,22.21.08,2.95.34,2.52-2.5,2.53-4.55.02-9.1-.03-13.65.03-1.13.01-1.43-.38-1.43-1.46.03-15.43.03-30.86,0-46.29,0-1.07.28-1.46,1.42-1.48,4.36-.08,8.72-.22,13.07-.46,1.31-.07,1.82.27,1.66,1.58-.07.54-.01,1.1-.01,1.76Z"/>
  <path class="cls-1" d="m36.19,65.47c0-5.16.01-10.02,0-14.89-.01-4.08-.02-8.16-.11-12.24-.03-1.16.28-1.57,1.5-1.46,5.27.48,10.55.91,15.84,1.28,1.17.08,1.46.53,1.45,1.64-.03,13.55-.02,27.1-.02,40.65,0,9.94-.03,19.88.03,29.82,0,1.4-.34,1.85-1.79,1.82-5.01-.09-10.03-.07-15.05-.01-1.19.01-1.58-.39-1.5-1.54.08-1.06.02-2.13.02-3.41-.45.27-.72.41-.96.57-5.27,3.55-11.01,5.44-17.4,4.58-5.33-.71-9.3-3.76-12.48-7.93-9.26-12.13-6.99-30.12,4.9-39.53,4.72-3.74,10.05-4.24,15.71-3.32,3.51.57,6.78,1.74,9.87,3.96Zm-9.68,31.09c5.05-.04,9.92-4.97,9.92-10.04,0-5.18-4.77-9.79-10.07-9.73-5.09.06-9.63,4.76-9.56,9.91.08,5.11,4.8,9.9,9.71,9.86Z"/>
  <path class="cls-1" d="m146.51.03c6.1,0,12.19-.04,18.29.01,8.06.07,17.66,7.53,19.75,15.27,1.02,3.76.98,3.8-2.85,4.15-3.41.31-6.82.61-10.22.96-.86.09-1.33-.11-1.74-.96-1.63-3.43-4.62-4.96-8.4-4.44-.51.07-1.03.08-1.54.08-9.1,0-18.19,0-27.29,0-3.68,0-6.88,2.19-8.26,5.66-1.15,2.87-.15,6.46,2.51,8.92,1.63,1.51,3.46,2.35,5.82,2.32,8.58-.1,17.16-.05,25.74-.03,1.21,0,2.41.19,3.62.3,3.23.3,5.81-.89,7.62-3.53.57-.83,1.07-1.06,2.05-.95,3.96.45,7.93.86,11.9,1.15,1.2.09,1.39.56,1.29,1.58-.39,3.98-2.29,7.23-5.05,9.95-4.87,4.79-10.62,7.5-17.63,7.42-9.8-.12-19.6-.12-29.4,0-10.1.13-17.17-4.71-21.82-13.26-6.82-12.52-.94-28.54,12.16-33.45,1.89-.71,3.99-1.07,6.01-1.12,5.81-.15,11.63-.05,17.44-.05Z"/>
  <path class="cls-1" d="m182.66,62.57c.76-.03,1.27-.06,1.77-.08,5.01-.13,10.03-.23,15.04-.42,1.07-.04,1.55.24,1.91,1.3,2.76,8.16,5.59,16.3,8.4,24.45.12.34.27.68.57,1.42.66-2.52,1.23-4.66,1.79-6.81,1.67-6.44,3.31-12.88,5.02-19.31.13-.49.76-1.18,1.2-1.2,5.71-.34,11.42-.58,17.13-.83.13,0,.26.09.56.2-.51,1.97-1,3.95-1.53,5.92-3.73,13.93-7.44,27.87-11.21,41.8-1.78,6.58-4.47,12.72-9.08,17.88-6.11,6.83-13.76,8.96-22.55,7.07-3.09-.67-6.06-1.91-9.05-2.98-.39-.14-.9-.92-.82-1.28,1.23-5.39,2.54-10.76,3.84-16.13.02-.08.12-.14.02-.03,2.81.97,5.48,2.06,8.25,2.81,2.79.76,5.58.7,7.97-1.37,1.06-.91,1.42-1.77.81-3.26-6.56-15.89-13.04-31.81-19.54-47.73-.15-.38-.28-.77-.51-1.42Z"/>
  <path class="cls-1" d="m236.6,47.46c-4.93,0-9.94.02-14.95-.04-.3,0-.79-.58-.84-.94-.12-.9-.04-1.83-.04-2.59-2.62,1.1-5.01,2.43-7.58,3.14-8.55,2.37-16.78-.75-22.25-8.18-7.46-10.13-6.16-25.12,3.08-33.14,6.36-5.51,13.69-7.16,21.76-4.34,1.54.54,2.91,1.6,4.43,2.46.03-.28.08-.58.08-.89.02-2.57-.35-2.34,2.31-2.34,3.61,0,7.22.05,10.83-.03,1.23-.03,1.6.35,1.65,1.57.47,11.57,1.03,23.14,1.49,34.72.14,3.46.02,6.93.02,10.6Zm-17.02-24.32c0-4.82-3.43-8.4-8.1-8.42-5.21-.03-9.63,4.19-9.62,9.19.01,4.73,4.35,9.27,8.83,9.26,4.67-.02,8.88-4.76,8.89-10.02Z"/>
  <path class="cls-1" d="m107.38,47.47c-2.31,0-4.37,0-6.42,0-2.81,0-5.63-.03-8.44.02-1.01.02-1.5-.25-1.4-1.34.07-.78.01-1.57.01-2.38-.29,0-.47-.05-.55,0-9.53,6.88-23.11,5.22-30.42-6.62-5.85-9.47-4.48-22.63,3.28-30.59,5.9-6.06,15.67-8.23,23.1-5.05,1.39.6,2.64,1.53,4.03,2.35.03-.28.09-.58.09-.89,0-2.69-.17-2.36,2.31-2.37,3.71,0,7.41.03,11.12-.02.97-.01,1.29.3,1.33,1.27.53,12.7,1.09,25.4,1.64,38.09.11,2.43.21,4.86.33,7.51Zm-17.45-24.33c0-4.84-3.43-8.4-8.1-8.42-5.19-.01-9.65,4.24-9.63,9.19.02,4.69,4.41,9.27,8.87,9.25,4.68-.02,8.86-4.74,8.87-10.03Z"/>
  <path class="cls-1" d="m74.24,90.56c.45,3.26,3.73,6.65,6.81,7.02,4.2.5,8.05-.16,10.95-3.66.23-.28.84-.47,1.19-.38,3.88,1.07,7.75,2.21,11.63,3.31.9.25.88.74.61,1.49-2.01,5.35-5.85,8.99-10.86,11.43-14.37,6.99-30.71-.06-35.72-15.44-2.14-6.59-2.35-13.25.85-19.56,3.89-7.69,10.55-11.58,18.91-12.7,4.56-.61,9.11-.33,13.47,1.22,8.14,2.89,12.63,8.94,14.18,17.23.5,2.69.4,5.5.61,8.25.09,1.18-.42,1.49-1.56,1.5-9.75.07-19.5.19-29.25.29-.59,0-1.19,0-1.81,0Zm-.02-11.48h15.09c.13-2.56-2.16-4.95-5.24-5.53-4.45-.85-8.44,1.32-9.85,5.53Z"/>
  <path class="cls-1" d="m250.12,111.75c-5.74-.05-10.2-4.59-10.17-10.34.03-5.81,4.56-10.21,10.46-10.17,5.75.04,10.48,4.71,10.21,10.45-.28,5.9-4.73,10.15-10.5,10.05Z"/>
</svg>