<?xml version="1.0" encoding="UTF-8"?>
<svg id="Camada_1" data-name="Camada 1" xmlns="http://www.w3.org/2000/svg" viewBox="0 0 365.77 108.59">
  <defs>
    <style>
      .cls-1 {
        fill: #ffffff;
      }
    </style>
  </defs>
  <circle class="cls-1" cx="356.57" cy="56.12" r="9.2"/>
  <g>
    <path class="cls-1" d="m26.18,107.16c-.37-1.16-.77-2.35-1.19-3.56-.43-1.22-.85-2.43-1.27-3.64h-13c-.42,1.21-.84,2.43-1.26,3.65-.42,1.22-.82,2.41-1.18,3.55H.48c1.25-3.59,2.44-6.9,3.57-9.94,1.12-3.04,2.22-5.91,3.3-8.6,1.08-2.69,2.14-5.24,3.18-7.66,1.04-2.42,2.13-4.78,3.25-7.09h7.1c1.09,2.31,2.17,4.67,3.23,7.09,1.06,2.42,2.13,4.97,3.21,7.66s2.18,5.56,3.31,8.6c1.13,3.04,2.32,6.36,3.57,9.94h-8.03Zm-9-25.75c-.17.48-.41,1.14-.73,1.97-.32.83-.69,1.79-1.1,2.89-.41,1.09-.87,2.29-1.38,3.6s-1.02,2.69-1.55,4.13h9.52c-.51-1.44-1-2.82-1.48-4.14-.48-1.32-.93-2.52-1.36-3.61-.43-1.09-.81-2.05-1.13-2.88-.32-.83-.59-1.48-.79-1.96Z"/>
    <path class="cls-1" d="m49.58,107.59c-1.83,0-3.64-.06-5.45-.17-1.81-.11-3.69-.38-5.65-.79v-32.29c1.54-.29,3.22-.5,5.04-.65s3.52-.22,5.09-.22c2.11,0,4.06.15,5.84.46,1.78.3,3.31.82,4.59,1.56,1.28.74,2.28,1.71,3,2.91s1.08,2.68,1.08,4.44c0,2.66-1.28,4.76-3.84,6.29,2.11.8,3.56,1.89,4.32,3.27.77,1.38,1.15,2.93,1.15,4.66,0,3.49-1.27,6.12-3.82,7.88-2.55,1.76-6.33,2.64-11.36,2.64Zm-3.8-20.66h3.65c2.31,0,3.96-.3,4.95-.89.99-.59,1.49-1.54,1.49-2.86s-.51-2.29-1.54-2.83c-1.03-.54-2.53-.82-4.52-.82-.64,0-1.33,0-2.07.02-.74.02-1.39.06-1.97.12v7.25Zm0,5.72v8.6c.54.06,1.14.11,1.78.14.64.03,1.35.05,2.11.05,2.24,0,4.05-.32,5.43-.96,1.38-.64,2.07-1.83,2.07-3.56,0-1.54-.58-2.63-1.73-3.29-1.15-.66-2.8-.99-4.95-.99h-4.71Z"/>
    <path class="cls-1" d="m80.52,73.48c5,0,8.82.89,11.48,2.67,2.66,1.78,3.99,4.54,3.99,8.29,0,2.34-.54,4.24-1.61,5.69-1.07,1.46-2.62,2.6-4.64,3.44.67.83,1.38,1.79,2.11,2.86.74,1.07,1.47,2.19,2.19,3.36.72,1.17,1.42,2.39,2.09,3.65.67,1.27,1.3,2.51,1.87,3.72h-8.38c-.61-1.09-1.23-2.19-1.86-3.31-.63-1.12-1.27-2.21-1.93-3.27-.66-1.06-1.31-2.06-1.95-3-.64-.94-1.29-1.8-1.93-2.57h-3.7v12.15h-7.5v-32.81c1.63-.32,3.32-.54,5.07-.67,1.75-.13,3.31-.19,4.68-.19Zm.43,6.39c-.55,0-1.03.02-1.47.05-.43.03-.84.06-1.23.1v9.03h2.11c2.82,0,4.84-.35,6.05-1.06,1.22-.7,1.83-1.9,1.83-3.6s-.62-2.79-1.85-3.48c-1.23-.69-3.05-1.03-5.45-1.03Z"/>
    <path class="cls-1" d="m133.65,90.49c0,2.85-.42,5.36-1.27,7.52-.85,2.16-2.01,3.97-3.48,5.43-1.47,1.46-3.23,2.55-5.26,3.29-2.03.74-4.22,1.1-6.56,1.1s-4.42-.37-6.44-1.1c-2.02-.74-3.78-1.83-5.28-3.29-1.51-1.46-2.69-3.27-3.56-5.43-.86-2.16-1.3-4.67-1.3-7.52s.45-5.36,1.35-7.52c.9-2.16,2.11-3.98,3.63-5.45,1.52-1.47,3.28-2.58,5.28-3.31,2-.74,4.11-1.1,6.32-1.1s4.42.37,6.44,1.1c2.02.74,3.78,1.84,5.28,3.31,1.5,1.47,2.69,3.29,3.56,5.45.86,2.16,1.3,4.67,1.3,7.52Zm-25.41,0c0,1.63.2,3.11.6,4.42.4,1.31.98,2.44,1.73,3.39.75.94,1.67,1.67,2.76,2.19,1.09.51,2.34.77,3.75.77s2.62-.26,3.72-.77c1.1-.51,2.03-1.24,2.79-2.19.75-.94,1.33-2.07,1.73-3.39.4-1.31.6-2.79.6-4.42s-.2-3.11-.6-4.44c-.4-1.33-.98-2.47-1.73-3.41-.75-.94-1.68-1.67-2.79-2.19-1.1-.51-2.35-.77-3.72-.77s-2.66.26-3.75.79-2.01,1.27-2.76,2.21c-.75.95-1.33,2.08-1.73,3.41-.4,1.33-.6,2.79-.6,4.4Z"/>
    <path class="cls-1" d="m161.04,107.16c-.37-1.16-.77-2.35-1.19-3.56-.43-1.22-.85-2.43-1.27-3.64h-13c-.42,1.21-.84,2.43-1.26,3.65-.42,1.22-.82,2.41-1.18,3.55h-7.78c1.25-3.59,2.44-6.9,3.57-9.94,1.12-3.04,2.22-5.91,3.3-8.6,1.08-2.69,2.14-5.24,3.18-7.66,1.04-2.42,2.13-4.78,3.25-7.09h7.1c1.09,2.31,2.17,4.67,3.23,7.09,1.06,2.42,2.13,4.97,3.21,7.66s2.18,5.56,3.31,8.6c1.13,3.04,2.32,6.36,3.57,9.94h-8.03Zm-9-25.75c-.17.48-.41,1.14-.73,1.97-.32.83-.69,1.79-1.1,2.89-.41,1.09-.87,2.29-1.38,3.6s-1.02,2.69-1.55,4.13h9.52c-.51-1.44-1-2.82-1.48-4.14-.48-1.32-.93-2.52-1.36-3.61-.43-1.09-.81-2.05-1.13-2.88-.32-.83-.59-1.48-.79-1.96Z"/>
    <path class="cls-1" d="m202.5,90.49c0,2.88-.45,5.4-1.35,7.54-.9,2.15-2.17,3.92-3.82,5.33-1.65,1.41-3.66,2.47-6.03,3.17-2.37.7-5.03,1.06-7.98,1.06-1.35,0-2.92-.06-4.71-.17-1.79-.11-3.56-.34-5.29-.7v-32.43c1.73-.32,3.53-.54,5.41-.65,1.87-.11,3.48-.17,4.83-.17,2.85,0,5.44.32,7.76.96,2.32.64,4.32,1.65,5.98,3.03,1.67,1.38,2.95,3.14,3.84,5.29.9,2.15,1.35,4.72,1.35,7.73Zm-21.67,10.57c.35.03.76.06,1.23.07.46.02,1.02.02,1.66.02,3.75,0,6.53-.94,8.34-2.83,1.81-1.89,2.71-4.5,2.71-7.83s-.86-6.13-2.59-7.93c-1.73-1.79-4.47-2.69-8.22-2.69-.51,0-1.04,0-1.59.02-.54.02-1.06.06-1.54.12v21.04Z"/>
  </g>
  <g>
    <path class="cls-1" d="m31.82,65.1l-.08-3.8c-1.45,1.24-3.26,2.24-5.41,2.99-2.15.75-4.36,1.13-6.62,1.13-3.55,0-6.84-.98-9.85-2.95-3.02-1.97-5.41-4.62-7.19-7.96C.89,51.18,0,47.52,0,43.54s.92-7.73,2.75-11.07c1.83-3.34,4.35-5.96,7.55-7.88,3.2-1.91,6.74-2.87,10.62-2.87,2.1,0,4.08.35,5.94,1.05,1.86.7,3.35,1.67,4.48,2.91v-3.47h13.41l1.86,42.89h-14.78Zm-5.33-14.3c1.29-.86,2.31-2.01,3.07-3.43.75-1.43,1.13-2.95,1.13-4.56,0-2.21-.71-4.05-2.14-5.53-1.43-1.48-3.22-2.22-5.37-2.22-2.37,0-4.44.84-6.22,2.5-1.78,1.67-2.67,3.66-2.67,5.98,0,1.4.39,2.77,1.17,4.12.78,1.35,1.8,2.42,3.07,3.23,1.26.81,2.57,1.21,3.92,1.21s2.75-.43,4.04-1.29Z"/>
    <path class="cls-1" d="m58.4,62.56c-3.39-2.07-6.09-4.85-8.08-8.32-1.99-3.47-2.99-7.2-2.99-11.19s.96-7.63,2.87-10.94c1.91-3.31,4.5-5.94,7.75-7.88,3.26-1.94,6.85-2.91,10.78-2.91,3.5,0,6.93.81,10.3,2.42,3.36,1.62,6.1,3.8,8.2,6.54,2.1,2.75,3.15,5.71,3.15,8.89l-13.57,1.21c-.48-1.56-1.36-2.81-2.62-3.76-1.27-.94-2.68-1.41-4.24-1.41-2.15,0-4.08.79-5.78,2.38-1.7,1.59-2.54,3.41-2.54,5.45,0,1.35.4,2.67,1.21,3.96.81,1.29,1.87,2.34,3.19,3.15,1.32.81,2.68,1.21,4.08,1.21s2.73-.4,4-1.21c1.26-.81,2.17-1.83,2.71-3.07l13.41,1.29c0,2.96-1.01,5.77-3.03,8.44-2.02,2.67-4.64,4.81-7.88,6.42-3.23,1.62-6.54,2.42-9.94,2.42-3.93,0-7.59-1.04-10.98-3.11Z"/>
    <path class="cls-1" d="m123.42,65.1l-.08-3.8c-1.45,1.24-3.26,2.24-5.41,2.99-2.15.75-4.36,1.13-6.62,1.13-3.55,0-6.84-.98-9.85-2.95-3.02-1.97-5.41-4.62-7.19-7.96-1.78-3.34-2.67-7-2.67-10.99s.92-7.73,2.75-11.07c1.83-3.34,4.35-5.96,7.55-7.88,3.2-1.91,6.74-2.87,10.62-2.87,2.1,0,4.08.35,5.94,1.05,1.86.7,3.35,1.67,4.48,2.91v-3.47h13.41l1.86,42.89h-14.78Zm-5.33-14.3c1.29-.86,2.31-2.01,3.07-3.43.75-1.43,1.13-2.95,1.13-4.56,0-2.21-.71-4.05-2.14-5.53-1.43-1.48-3.22-2.22-5.37-2.22-2.37,0-4.44.84-6.22,2.5-1.78,1.67-2.67,3.66-2.67,5.98,0,1.4.39,2.77,1.17,4.12.78,1.35,1.8,2.42,3.07,3.23,1.26.81,2.57,1.21,3.92,1.21s2.75-.43,4.04-1.29Z"/>
    <path class="cls-1" d="m186.5,1.29v63.97h-15.75v-4.52c-1.67,1.45-3.77,2.64-6.3,3.55-2.53.92-5.09,1.37-7.67,1.37-3.18,0-6.14-1.01-8.88-3.03-2.75-2.02-4.93-4.75-6.54-8.2-1.62-3.45-2.42-7.16-2.42-11.15,0-3.66.83-7.19,2.5-10.58,1.67-3.39,3.86-6.15,6.58-8.28,2.72-2.13,5.56-3.22,8.52-3.27,5.65-.16,10.31,1.13,13.97,3.88l-.16-25.04,16.15,1.29Zm-20.44,49.39c1.35-.83,2.44-1.94,3.27-3.31.83-1.37,1.25-2.79,1.25-4.24,0-2.26-.88-4.24-2.62-5.94-1.75-1.7-3.78-2.54-6.1-2.54s-4.16.85-5.86,2.54c-1.7,1.7-2.54,3.7-2.54,6.02,0,1.45.39,2.85,1.17,4.2.78,1.35,1.83,2.44,3.15,3.27,1.32.84,2.68,1.25,4.08,1.25s2.85-.42,4.2-1.25Z"/>
    <path class="cls-1" d="m226.24,27.62c3.72,3.93,5.57,9.29,5.57,16.07,0,1.13-.03,1.99-.08,2.58l-28.59.32c.65,1.78,1.55,3.25,2.71,4.4,1.16,1.16,2.52,1.79,4.08,1.9,4.31.32,7.43-.94,9.37-3.8l11.55,3.31c-.7,2.53-2.05,4.81-4.04,6.83-1.99,2.02-4.38,3.59-7.15,4.73-2.77,1.13-5.64,1.7-8.6,1.7-.7,0-1.24-.03-1.62-.08-3.72-.27-7.15-1.48-10.3-3.63-3.15-2.15-5.65-4.98-7.51-8.48-1.86-3.5-2.79-7.32-2.79-11.47,0-.81.03-1.43.08-1.86.21-3.55,1.31-6.73,3.27-9.53,1.96-2.8,4.55-4.98,7.75-6.54,3.2-1.56,6.74-2.34,10.62-2.34,6.73,0,11.95,1.97,15.67,5.9Zm-23.02,9.13l13.65.08c-.22-1.56-.85-2.77-1.9-3.63-1.05-.86-2.25-1.35-3.59-1.45-3.99-.32-6.7,1.35-8.16,5.01Z"/>
    <path class="cls-1" d="m299.66,65.1h-15.67l-.08-22.45c0-2.96-.34-5.01-1.01-6.14-.67-1.13-1.9-1.7-3.67-1.7-1.35,0-2.44.82-3.27,2.46-.84,1.64-1.25,3.73-1.25,6.26l.08,1.53-.08-.24v20.03l-15.19.16-.16-22.37c0-2.48-.46-4.4-1.37-5.78-.92-1.37-2.21-2.06-3.88-2.06s-3.04.73-3.96,2.18c-.92,1.45-1.37,3.53-1.37,6.22l.08,1.7-.08-.16.65,20.44h-15.19V22.62l13.89-.48.08,3.23c1.4-1.08,3.11-1.91,5.13-2.5,2.02-.59,4.21-.89,6.58-.89,4.95,0,8.7,1.27,11.23,3.8,1.35-1.51,3.12-2.58,5.33-3.23,2.21-.65,5.09-.97,8.64-.97,5.01,0,8.66,1.98,10.94,5.94,2.29,3.96,3.46,10.35,3.51,19.18l.08,18.42Z"/>
    <path class="cls-1" d="m344.17,21.08l-11.31,42.24c-1.99,6.89-4.91,12.21-8.76,15.95-3.85,3.74-8.33,5.61-13.45,5.61-2.15,0-4.46-.32-6.91-.97-2.45-.65-4.75-1.51-6.91-2.58l3.63-15.1c1.02.86,2.56,1.62,4.6,2.26,2.05.65,3.74.97,5.09.97,2.42,0,4.28-1.02,5.57-3.07l-18.01-44.02,15.83-.4,8.24,23.91,6.22-24.07,16.15-.73Z"/>
  </g>
</svg>